<svg width="32" height="32" viewBox="0 0 32 32" fill="none" xmlns="http://www.w3.org/2000/svg">
  <rect width="32" height="32" rx="8" fill="url(#favicon-gradient)"/>
  <g fill="white">
    <path d="M8 10h16a1 1 0 0 1 0 2H8a1 1 0 0 1 0-2z"/>
    <path d="M8 15h12a1 1 0 0 1 0 2H8a1 1 0 0 1 0-2z"/>
    <path d="M8 20h10a1 1 0 0 1 0 2H8a1 1 0 0 1 0-2z"/>
    <circle cx="23" cy="15" r="1" fill="white"/>
    <path d="M22.3 17.7a1 1 0 0 1 1.4-1.4l1 1a1 1 0 0 1 0 1.4l-1 1a1 1 0 0 1-1.4-1.4l.3-.3-.3-.3z"/>
  </g>
  <defs>
    <linearGradient id="favicon-gradient" x1="0%" y1="0%" x2="100%" y2="100%">
      <stop offset="0%" style="stop-color:#ef4444"/>
      <stop offset="100%" style="stop-color:#f97316"/>
    </linearGradient>
  </defs>
</svg>
